<svg width="32" height="28" viewBox="0 0 32 28" fill="none" xmlns="http://www.w3.org/2000/svg">
<path d="M15.8145 24.7899C12.1579 21.1334 12.2198 15.1665 16 11.588C19.6359 8.1463 25.2963 8.22856 28.8362 11.7689C31.8217 14.7548 32.3276 19.2806 30.3548 22.7889C30.2739 22.9327 30.253 23.1026 30.2957 23.262L31.1047 26.2812C31.2312 26.7533 30.7992 27.1853 30.3271 27.0588L27.3081 26.2499C27.1496 26.2074 26.9803 26.227 26.8373 26.3074C23.3286 28.282 18.801 27.7765 15.8145 24.7899Z" fill="#FFE177"/>
<path d="M20.2141 9.30557C18.685 9.66685 17.2271 10.4265 16 11.5881C13.6924 13.7725 12.7706 16.8467 13.2341 19.7423C14.847 19.3644 16.3777 18.5469 17.6352 17.2893C19.8091 15.1155 20.6686 12.1252 20.2141 9.30557Z" fill="#FFD15B"/>
<path d="M16.1855 16.2646C19.8421 12.6081 19.7802 6.6412 16 3.06275C12.3641 -0.378998 6.70371 -0.296742 3.16377 3.24364C0.178238 6.22948 -0.327611 10.7553 1.64522 14.2636C1.7261 14.4074 1.74698 14.5773 1.70429 14.7367L0.89529 17.7559C0.76878 18.228 1.20081 18.66 1.67291 18.5335L4.69194 17.7246C4.85039 17.6821 5.01971 17.7017 5.16266 17.7821C8.67135 19.7567 13.1989 19.2512 16.1855 16.2646Z" fill="#FAF7F7"/>
<path d="M16 3.06275C15.506 2.59509 14.9743 2.193 14.4159 1.85535C14.423 1.86203 14.4303 1.86847 14.4374 1.87516C18.2176 5.45361 18.2795 11.4205 14.6229 15.0771C12.3064 17.3936 8.79617 18.5709 5.70026 18.0613C9.12363 19.6992 13.3494 19.1008 16.1855 16.2646C19.8421 12.6081 19.7802 6.64119 16 3.06275Z" fill="#F3EAE6"/>
<path d="M5.30563 10.4328C5.89417 10.4328 6.37127 9.95574 6.37127 9.3672C6.37127 8.77866 5.89417 8.30156 5.30563 8.30156C4.71709 8.30156 4.23999 8.77866 4.23999 9.3672C4.23999 9.95574 4.71709 10.4328 5.30563 10.4328Z" fill="#B9ACAC"/>
<path d="M9.67688 10.4328C10.2654 10.4328 10.7425 9.95574 10.7425 9.3672C10.7425 8.77866 10.2654 8.30156 9.67688 8.30156C9.08835 8.30156 8.61124 8.77866 8.61124 9.3672C8.61124 9.95574 9.08835 10.4328 9.67688 10.4328Z" fill="#B9ACAC"/>
<path d="M14.0481 10.4328C14.6367 10.4328 15.1138 9.95574 15.1138 9.3672C15.1138 8.77866 14.6367 8.30156 14.0481 8.30156C13.4596 8.30156 12.9825 8.77866 12.9825 9.3672C12.9825 9.95574 13.4596 10.4328 14.0481 10.4328Z" fill="#B9ACAC"/>
<path d="M22.325 22.9268C22.5868 22.9268 22.799 22.7145 22.799 22.4528C22.799 22.191 22.5868 21.9788 22.325 21.9788C22.0633 21.9788 21.8511 22.191 21.8511 22.4528C21.8511 22.7145 22.0633 22.9268 22.325 22.9268Z" fill="black"/>
<path d="M5.3057 10.9016C6.15176 10.9016 6.84013 10.2132 6.84013 9.36713C6.84013 8.521 6.15176 7.8327 5.3057 7.8327C4.45958 7.8327 3.77122 8.52106 3.77122 9.36713C3.77122 10.2132 4.45958 10.9016 5.3057 10.9016ZM5.3057 8.77027C5.63485 8.77027 5.90256 9.03804 5.90256 9.36713C5.90256 9.69627 5.63485 9.96404 5.3057 9.96404C4.97655 9.96404 4.70879 9.69627 4.70879 9.36713C4.70879 9.03804 4.97655 8.77027 5.3057 8.77027Z" fill="black"/>
<path d="M11.2113 9.3672C11.2113 8.52108 10.5229 7.83278 9.67686 7.83278C8.83074 7.83278 8.14237 8.52114 8.14237 9.3672C8.14237 10.2133 8.83074 10.9017 9.67686 10.9017C10.5229 10.9016 11.2113 10.2133 11.2113 9.3672ZM9.08001 9.3672C9.08001 9.03812 9.34778 8.77035 9.67693 8.77035C10.0061 8.77035 10.2738 9.03812 10.2738 9.3672C10.2738 9.69635 10.0061 9.96412 9.67693 9.96412C9.34778 9.96412 9.08001 9.69629 9.08001 9.3672Z" fill="black"/>
<path d="M15.5826 9.3672C15.5826 8.52108 14.8942 7.83278 14.0481 7.83278C13.202 7.83278 12.5136 8.52114 12.5136 9.3672C12.5136 10.2133 13.202 10.9017 14.0481 10.9017C14.8942 10.9016 15.5826 10.2133 15.5826 9.3672ZM13.4512 9.3672C13.4512 9.03812 13.719 8.77035 14.0481 8.77035C14.3773 8.77035 14.645 9.03812 14.645 9.3672C14.645 9.69635 14.3773 9.96412 14.0481 9.96412C13.719 9.96406 13.4512 9.69629 13.4512 9.3672Z" fill="black"/>
<path d="M22.325 18.0126C22.0661 18.0126 21.8563 18.2225 21.8563 18.4813V20.5653C21.8563 20.8242 22.0661 21.0341 22.325 21.0341C22.5839 21.0341 22.7938 20.8242 22.7938 20.5653V18.9061C23.294 18.8106 23.7503 18.562 24.1102 18.183C24.5797 17.6885 24.8187 17.0404 24.7834 16.3581C24.7169 15.0769 23.6593 14.053 22.3757 14.0271C21.1284 14.0024 20.0591 14.9127 19.8871 16.1455C19.8714 16.2582 19.8634 16.3736 19.8634 16.4883C19.8634 16.7472 20.0732 16.9571 20.3321 16.9571C20.5911 16.9571 20.8009 16.7472 20.8009 16.4883C20.8009 16.4168 20.8059 16.3451 20.8156 16.2752C20.9207 15.5227 21.5669 14.9642 22.3255 14.9642C22.3359 14.9642 22.3464 14.9643 22.3567 14.9645C23.1513 14.9805 23.806 15.614 23.8471 16.4066C23.8691 16.8296 23.721 17.2312 23.4303 17.5374C23.1394 17.8439 22.7468 18.0126 22.325 18.0126Z" fill="black"/>
<path d="M30.7493 23.1407C30.7381 23.099 30.7433 23.0556 30.7641 23.0187C31.7783 21.2149 32.1891 19.0854 31.9204 17.0225C31.643 14.8919 30.6914 12.9606 29.1685 11.4375C27.8393 10.1083 26.1753 9.19863 24.3563 8.80685C22.6812 8.44607 20.9493 8.53739 19.3274 9.06849C19.1591 6.64544 18.1049 4.40909 16.323 2.7224C13.2913 -0.147492 8.79186 -0.756911 5.12673 1.20623C4.89852 1.32849 4.81258 1.61257 4.93484 1.84078C5.05703 2.06898 5.34105 2.15499 5.56938 2.03267C8.87793 0.2606 12.9405 0.811328 15.6784 3.40314C17.4095 5.04176 18.3808 7.25436 18.4134 9.63328C18.4461 12.0131 17.5374 14.2505 15.8547 15.9331C13.094 18.6938 8.79193 19.2861 5.39318 17.3735C5.14323 17.2328 4.85127 17.1966 4.57131 17.2717L1.55228 18.0806C1.4714 18.1021 1.41708 18.063 1.39177 18.0376C1.36645 18.0123 1.3272 17.9578 1.34876 17.8772L2.15776 14.8581C2.23277 14.5783 2.19614 14.2856 2.05457 14.0338C1.13875 12.4052 0.768035 10.4819 1.01074 8.61821C1.26126 6.69451 2.12063 4.95063 3.49604 3.57509C3.70637 3.36476 3.9287 3.16337 4.15703 2.97661C4.35742 2.8126 4.38686 2.51727 4.22291 2.31694C4.0589 2.11655 3.7635 2.08705 3.56324 2.25106C3.31097 2.45751 3.06533 2.67996 2.83306 2.91223C1.31014 4.43534 0.358506 6.36654 0.081048 8.4972C-0.187596 10.5602 0.223121 12.6896 1.23738 14.4934C1.2582 14.5303 1.26345 14.5736 1.2522 14.6155L0.443199 17.6346C0.339942 18.02 0.446699 18.4185 0.728845 18.7006C1.01093 18.9828 1.40952 19.0896 1.79492 18.9863L4.81395 18.1773C4.85539 18.1663 4.89883 18.1711 4.93346 18.1906C6.37732 19.0032 8.02968 19.4288 9.68999 19.4287C10.1041 19.4287 10.5192 19.4022 10.9311 19.3486C11.5293 19.2708 12.1116 19.1399 12.6737 18.9581C12.8357 21.2865 13.8241 23.4617 15.4837 25.1214C17.0534 26.6911 19.0469 27.6503 21.2485 27.8955C21.2661 27.8974 21.2836 27.8984 21.301 27.8984C21.5367 27.8984 21.7396 27.7212 21.7663 27.4815C21.7949 27.2241 21.6095 26.9923 21.3523 26.9637C19.3643 26.7423 17.5643 25.876 16.1467 24.4585C14.5802 22.892 13.6761 20.817 13.5939 18.6071C14.6731 18.1302 15.6601 17.4537 16.5178 16.5961C18.2787 14.8352 19.2736 12.5255 19.3469 10.0526C19.3498 10.0516 19.3528 10.0509 19.3556 10.0499C20.8944 9.49084 22.5555 9.37795 24.1589 9.72329C25.8012 10.077 27.3042 10.8989 28.5055 12.1003C29.8809 13.4759 30.7403 15.2198 30.9908 17.1435C31.2335 19.0072 30.8628 20.9304 29.947 22.559C29.8054 22.8108 29.7687 23.1035 29.8438 23.3833L30.6528 26.4024C30.6743 26.4831 30.6351 26.5376 30.6098 26.563C30.5844 26.5883 30.5298 26.6276 30.4493 26.606L27.4302 25.797C27.1501 25.7219 26.8582 25.7581 26.6083 25.8988C25.4813 26.5331 24.1998 26.9134 22.9021 26.9987C22.6438 27.0157 22.4481 27.2388 22.4652 27.4972C22.4814 27.7451 22.6876 27.9353 22.9324 27.9352C22.9428 27.9352 22.9532 27.9349 22.9637 27.9342C24.4004 27.8398 25.8197 27.4185 27.0681 26.7159C27.1029 26.6964 27.1464 26.6916 27.1876 26.7027L30.2067 27.5116C30.5922 27.6148 30.9907 27.508 31.2728 27.2259C31.5549 26.9438 31.6618 26.5453 31.5584 26.1599L30.7493 23.1407Z" fill="black"/>
</svg>
